<svg xmlns="http://www.w3.org/2000/svg" viewBox="0 0 440 280">
  <path fill="#fff" d="M-.5-2h441v281H-.5z"/>
  <path d="M66 15A66 66 0 000 76l35 15a19 19 0 0110-3h1l16-23v-.3a25 25 0 1125 25h-.6l-22 16v.9a19 19 0 01-37 4l-25-10a66 66 0 1064-84z"/>
  <path d="M42 116l-8-3a14 14 0 108-19l8 4a10 10 0 11-8 19zm63-51a17 17 0 10-17 17 17 17 0 0017-17zm-29 0a12 12 0 1112 13 12 12 0 01-13-13zm128-4l-4 8a22 22 0 00-12-4c-5 0-7 2-7 5 0 4 5 5 13 8s13 6 13 14c0 10-8 16-19 16a35 35 0 01-18-5l3-9a31 31 0 0014 4c6 0 9-2 9-6s-4-5-12-7c-8-3-14-6-14-14 0-9 7-15 18-15a28 28 0 0117 5zm35 5v41h-10V66h-15v-9h41v9zm37 0v11h20v9h-20v12h23v9h-34V57h34v9zm46 31l-3 10h-11l19-50h10l19 50h-11l-3-10zm10-28l-7 20h14zm78 7l-14 29h-6l-13-29v31h-10V57h10l17 36 16-36h10v50h-10zm30-13a7 7 0 11-7-7 7 7 0 017 7zm-13 0a6 6 0 1012 0 6 6 0 10-12 0zm6-4c2 0 2 .9 2 2a2 2 0 01-1 2l1 3h-1l-1-3h-1v3h-1v-7zm-1 3h1a1 1 0 001-1c0-.6-.3-1-1-1h-1z"/>
  <text x="35.2" y="225" fill="#00a3ff" stroke-width="2" font-family="Tahoma, sans-serif" font-size="80" letter-spacing="0" style="line-height:1.25" word-spacing="0">
    <tspan x="35.2" y="225">ID Finder</tspan>
  </text>
</svg>