<svg xmlns="http://www.w3.org/2000/svg" viewBox="0 0 293.5 88.5">
    <path d="M44 0A44.2 44.2 0 000 40.7l23.7 9.8a12.5 12.5 0 017-2.2h.8L42 33v-.2a16.7 16.7 0 1116.7 16.7h-.4l-15 10.7v.6a12.5 12.5 0 01-24.8 2.5l-17-7A44.2 44.2 0 1044.1 0z"/>
    <path d="M27.7 67.1L22.3 65A9.4 9.4 0 1027.4 52l5.6 2.4A7 7 0 1127.7 67zm42.1-34.3A11.1 11.1 0 1058.7 44a11.1 11.1 0 0011.1-11.2zm-19.4 0a8.3 8.3 0 118.3 8.4 8.3 8.3 0 01-8.4-8.4zm85.2-2.5l-3 5.2a14.8 14.8 0 00-8.1-2.6c-3.1 0-5 1.3-5 3.6 0 2.8 3.4 3.4 8.4 5.2 5.4 2 8.5 4.2 8.5 9.2 0 6.8-5.3 10.6-13 10.6a23.6 23.6 0 01-11.7-3.1l2.2-5.8A20.5 20.5 0 00123 55c4 0 6-1.5 6-3.7 0-2.5-3-3.3-7.7-4.9-5.4-1.8-9.2-4.1-9.2-9.6 0-6.2 5-9.8 12.2-9.8a19 19 0 0111.2 3.3zm23.1 3.3v27.3h-7V33.6h-10v-6h27.1v6zm24.9 0V41h13.3v6h-13.3V55H199v6h-22.4V27.6H199v6zm31 20.8l-2.2 6.5h-7.3l12.5-33.3h7l12.9 33.3h-7.6l-2.3-6.5zm6.5-18.9L216.5 49h9.2zm52.2 5l-9.1 19.4h-4l-9-19.3V61h-6.7V27.6h6.7l11.2 24 10.8-24h6.8v33.3h-6.7zm20.2-8.7a4.6 4.6 0 11-4.7-4.7 4.5 4.5 0 014.7 4.7zm-8.5 0a3.8 3.8 0 107.7 0 3.8 3.8 0 10-7.7 0zm4-2.4c1.1 0 1.5.6 1.5 1.3a1.4 1.4 0 01-.8 1.3l1 2h-.8l-1-1.8h-.8V34h-.8v-4.6zm-1 2.1h.9a.8.8 0 00.8-.7c0-.4-.2-.7-.8-.7h-.8z"/>
</svg>